{
  "accessors": [
    {
      "bufferView": 2,
      "componentType": 5126,
      "count": 9737,
      "max": [
        1462.0174560546875,
        1462.005126953125,
        6619.97216796875
      ],
      "min": [
        -1462.0010986328125,
        -1462.01318359375,
        0.0
      ],
      "type": "VEC3"
    },
    {
      "bufferView": 2,
      "byteOffset": 116844,
      "componentType": 5126,
      "count": 9737,
      "max": [
        1.0,
        1.0,
        1.0
      ],
      "min": [
        -1.0,
        -1.0,
        -1.0
      ],
      "type": "VEC3"
    },
    {
      "bufferView": 3,
      "componentType": 5126,
      "count": 9737,
      "max": [
        1.0,
        1.0,
        1.0,
        1.0
      ],
      "min": [
        -1.0,
        -1.0,
        -1.0,
        -1.0
      ],
      "type": "VEC4"
    },
    {
      "bufferView": 1,
      "componentType": 5126,
      "count": 9737,
      "max": [
        1.0003999471664429,
        0.9980999827384949
      ],
      "min": [
        0.003700000001117587,
        0.0031999999191612005
      ],
      "type": "VEC2"
    },
    {
      "bufferView": 0,
      "componentType": 5125,
      "count": 40596,
      "type": "SCALAR"
    },
    {
      "bufferView": 2,
      "byteOffset": 233688,
      "componentType": 5126,
      "count": 2076,
      "max": [
        1261.47607421875,
        1261.4791259765625,
        5769.962890625
      ],
      "min": [
        220.11090087890625,
        -1208.5513916015625,
        0.0
      ],
      "type": "VEC3"
    },
    {
      "bufferView": 2,
      "byteOffset": 258600,
      "componentType": 5126,
      "count": 2076,
      "max": [
        1.0,
        1.0,
        1.0
      ],
      "min": [
        -0.9238766431808472,
        -1.0,
        -1.0
      ],
      "type": "VEC3"
    },
    {
      "bufferView": 3,
      "byteOffset": 155792,
      "componentType": 5126,
      "count": 2076,
      "max": [
        1.0,
        1.0,
        0.6512243747711182,
        1.0
      ],
      "min": [
        -1.0,
        -0.9247174859046936,
        -0.6428946256637573,
        1.0
      ],
      "type": "VEC4"
    },
    {
      "bufferView": 1,
      "byteOffset": 77896,
      "componentType": 5126,
      "count": 2076,
      "max": [
        0.8716999888420105,
        0.9383000135421753
      ],
      "min": [
        0.1460999995470047,
        0.0031999999191612005
      ],
      "type": "VEC2"
    },
    {
      "bufferView": 0,
      "byteOffset": 162384,
      "componentType": 5125,
      "count": 7938,
      "type": "SCALAR"
    }
  ],
  "asset": {
    "extras": {
      "author": "andrea.notarstefano (https://sketchfab.com/andrea.notarstefano)",
      "license": "CC-BY-4.0 (http://creativecommons.org/licenses/by/4.0/)",
      "source": "https://sketchfab.com/3d-models/muqarnas-pillar-81f9be447fa14c66b7b384ca32953fc0",
      "title": "Muqarnas - Pillar"
    },
    "generator": "Sketchfab-12.68.0",
    "version": "2.0"
  },
  "bufferViews": [
    {
      "buffer": 0,
      "byteLength": 194136,
      "name": "floatBufferViews",
      "target": 34963
    },
    {
      "buffer": 0,
      "byteLength": 94504,
      "byteOffset": 194136,
      "byteStride": 8,
      "name": "floatBufferViews",
      "target": 34962
    },
    {
      "buffer": 0,
      "byteLength": 283512,
      "byteOffset": 288640,
      "byteStride": 12,
      "name": "floatBufferViews",
      "target": 34962
    },
    {
      "buffer": 0,
      "byteLength": 189008,
      "byteOffset": 572152,
      "byteStride": 16,
      "name": "floatBufferViews",
      "target": 34962
    }
  ],
  "buffers": [
    {
      "byteLength": 761160,
      "uri": "scene.bin"
    }
  ],
  "images": [
    {
      "uri": "textures/muqarnas_pillarLarge_MAT_baseColor.jpeg"
    },
    {
      "uri": "textures/muqarnas_pillarLarge_MAT_metallicRoughness.png"
    },
    {
      "uri": "textures/muqarnas_pillarLarge_MAT_normal.png"
    }
  ],
  "materials": [
    {
      "doubleSided": true,
      "name": "muqarnas_pillarLarge_MAT",
      "normalTexture": {
        "index": 2
      },
      "occlusionTexture": {
        "index": 1
      },
      "pbrMetallicRoughness": {
        "baseColorTexture": {
          "index": 0
        },
        "metallicRoughnessTexture": {
          "index": 1
        }
      }
    }
  ],
  "meshes": [
    {
      "name": "Object_0",
      "primitives": [
        {
          "attributes": {
            "NORMAL": 1,
            "POSITION": 0,
            "TANGENT": 2,
            "TEXCOORD_0": 3
          },
          "indices": 4,
          "material": 0,
          "mode": 4
        }
      ]
    },
    {
      "name": "Object_1",
      "primitives": [
        {
          "attributes": {
            "NORMAL": 6,
            "POSITION": 5,
            "TANGENT": 7,
            "TEXCOORD_0": 8
          },
          "indices": 9,
          "material": 0,
          "mode": 4
        }
      ]
    }
  ],
  "nodes": [
    {
      "children": [
        1
      ],
      "matrix": [
        1.0,
        0.0,
        0.0,
        0.0,
        0.0,
        2.220446049250313e-16,
        -1.0,
        0.0,
        0.0,
        1.0,
        2.220446049250313e-16,
        0.0,
        0.0,
        0.0,
        0.0,
        1.0
      ],
      "name": "Sketchfab_model"
    },
    {
      "children": [
        2,
        3
      ],
      "name": "pillar.obj.cleaner.materialmerger.gles"
    },
    {
      "mesh": 0,
      "name": "Object_2"
    },
    {
      "mesh": 1,
      "name": "Object_3"
    }
  ],
  "samplers": [
    {
      "magFilter": 9729,
      "minFilter": 9987,
      "wrapS": 10497,
      "wrapT": 10497
    }
  ],
  "scene": 0,
  "scenes": [
    {
      "name": "Sketchfab_Scene",
      "nodes": [
        0
      ]
    }
  ],
  "textures": [
    {
      "sampler": 0,
      "source": 0
    },
    {
      "sampler": 0,
      "source": 1
    },
    {
      "sampler": 0,
      "source": 2
    }
  ]
}
