{
  "accessors": [
    {
      "bufferView": 2,
      "componentType": 5126,
      "count": 65532,
      "max": [
        11.844541549682617,
        13.757102012634277,
        19.95873260498047
      ],
      "min": [
        0.2749943733215332,
        0.0,
        0.0
      ],
      "type": "VEC3"
    },
    {
      "bufferView": 2,
      "byteOffset": 786384,
      "componentType": 5126,
      "count": 65532,
      "max": [
        0.9999819993972778,
        0.9999282956123352,
        0.9999986290931702
      ],
      "min": [
        -0.9999955296516418,
        -0.9999995231628418,
        -0.999991238117218
      ],
      "type": "VEC3"
    },
    {
      "bufferView": 1,
      "componentType": 5126,
      "count": 65532,
      "max": [
        0.9865490198135376,
        0.995822012424469
      ],
      "min": [
        0.00392899988219142,
        0.003558000084012747
      ],
      "type": "VEC2"
    },
    {
      "bufferView": 0,
      "componentType": 5125,
      "count": 335232,
      "type": "SCALAR"
    },
    {
      "bufferView": 2,
      "byteOffset": 1572768,
      "componentType": 5126,
      "count": 65532,
      "max": [
        11.469549179077148,
        11.709546089172363,
        12.926421165466309
      ],
      "min": [
        0.14583921432495117,
        1.0796890258789063,
        0.04343700408935547
      ],
      "type": "VEC3"
    },
    {
      "bufferView": 2,
      "byteOffset": 2359152,
      "componentType": 5126,
      "count": 65532,
      "max": [
        0.9999963045120239,
        0.9999386072158813,
        0.9999984502792358
      ],
      "min": [
        -0.999995231628418,
        -0.999991774559021,
        -0.9999592304229736
      ],
      "type": "VEC3"
    },
    {
      "bufferView": 1,
      "byteOffset": 524256,
      "componentType": 5126,
      "count": 65532,
      "max": [
        0.9929599761962891,
        0.9995560050010681
      ],
      "min": [
        0.002228999976068735,
        0.003932999912649393
      ],
      "type": "VEC2"
    },
    {
      "bufferView": 0,
      "byteOffset": 1340928,
      "componentType": 5125,
      "count": 309288,
      "type": "SCALAR"
    },
    {
      "bufferView": 2,
      "byteOffset": 3145536,
      "componentType": 5126,
      "count": 65532,
      "max": [
        11.153152465820313,
        12.54359245300293,
        25.078214645385742
      ],
      "min": [
        0.0,
        3.9110279083251953,
        0.05585956573486328
      ],
      "type": "VEC3"
    },
    {
      "bufferView": 2,
      "byteOffset": 3931920,
      "componentType": 5126,
      "count": 65532,
      "max": [
        0.9999982714653015,
        0.9998649954795837,
        0.999996542930603
      ],
      "min": [
        -0.9999865293502808,
        -0.9999914169311523,
        -0.9999167323112488
      ],
      "type": "VEC3"
    },
    {
      "bufferView": 1,
      "byteOffset": 1048512,
      "componentType": 5126,
      "count": 65532,
      "max": [
        0.989512026309967,
        0.99891597032547
      ],
      "min": [
        0.0042929998598992825,
        0.005644000135362148
      ],
      "type": "VEC2"
    },
    {
      "bufferView": 0,
      "byteOffset": 2578080,
      "componentType": 5125,
      "count": 317367,
      "type": "SCALAR"
    },
    {
      "bufferView": 2,
      "byteOffset": 4718304,
      "componentType": 5126,
      "count": 65532,
      "max": [
        11.864494323730469,
        13.623150825500488,
        24.569555282592773
      ],
      "min": [
        0.029236316680908203,
        0.3463888168334961,
        0.10672664642333984
      ],
      "type": "VEC3"
    },
    {
      "bufferView": 2,
      "byteOffset": 5504688,
      "componentType": 5126,
      "count": 65532,
      "max": [
        0.9999942779541016,
        0.9999998807907104,
        0.9999719262123108
      ],
      "min": [
        -0.9999865293502808,
        -0.9999825954437256,
        -0.9999145269393921
      ],
      "type": "VEC3"
    },
    {
      "bufferView": 1,
      "byteOffset": 1572768,
      "componentType": 5126,
      "count": 65532,
      "max": [
        0.9890750050544739,
        0.9989629983901978
      ],
      "min": [
        0.0039369999431073666,
        0.0033100000582635403
      ],
      "type": "VEC2"
    },
    {
      "bufferView": 0,
      "byteOffset": 3847548,
      "componentType": 5125,
      "count": 325317,
      "type": "SCALAR"
    },
    {
      "bufferView": 2,
      "byteOffset": 6291072,
      "componentType": 5126,
      "count": 62403,
      "max": [
        11.861574172973633,
        13.754484176635742,
        25.078214645385742
      ],
      "min": [
        0.0008220672607421875,
        2.4896321296691895,
        0.09704303741455078
      ],
      "type": "VEC3"
    },
    {
      "bufferView": 2,
      "byteOffset": 7039908,
      "componentType": 5126,
      "count": 62403,
      "max": [
        0.9999939203262329,
        0.9999914169311523,
        0.9999918937683105
      ],
      "min": [
        -0.9999855756759644,
        -0.9997434616088867,
        -0.999825119972229
      ],
      "type": "VEC3"
    },
    {
      "bufferView": 1,
      "byteOffset": 2097024,
      "componentType": 5126,
      "count": 62403,
      "max": [
        0.9900169968605042,
        0.998740017414093
      ],
      "min": [
        0.0023799999617040157,
        0.003955000080168247
      ],
      "type": "VEC2"
    },
    {
      "bufferView": 0,
      "byteOffset": 5148816,
      "componentType": 5125,
      "count": 262374,
      "type": "SCALAR"
    }
  ],
  "asset": {
    "extras": {
      "author": "jerryfisher (https://sketchfab.com/jerryfisher)",
      "license": "CC-BY-4.0 (http://creativecommons.org/licenses/by/4.0/)",
      "source": "https://sketchfab.com/3d-models/bronze-moses-at-augustana-university-0285f6b21ed545918511f4ee0fcd40ff",
      "title": "Bronze Moses at Augustana University"
    },
    "generator": "Sketchfab-12.68.0",
    "version": "2.0"
  },
  "bufferViews": [
    {
      "buffer": 0,
      "byteLength": 6198312,
      "name": "floatBufferViews",
      "target": 34963
    },
    {
      "buffer": 0,
      "byteLength": 2596248,
      "byteOffset": 6198312,
      "byteStride": 8,
      "name": "floatBufferViews",
      "target": 34962
    },
    {
      "buffer": 0,
      "byteLength": 7788744,
      "byteOffset": 8794560,
      "byteStride": 12,
      "name": "floatBufferViews",
      "target": 34962
    }
  ],
  "buffers": [
    {
      "byteLength": 16583304,
      "uri": "scene.bin"
    }
  ],
  "extensionsUsed": [
    "KHR_materials_unlit"
  ],
  "images": [
    {
      "uri": "textures/material_0_baseColor.jpeg"
    }
  ],
  "materials": [
    {
      "doubleSided": true,
      "extensions": {
        "KHR_materials_unlit": {}
      },
      "name": "material_0",
      "pbrMetallicRoughness": {
        "baseColorTexture": {
          "index": 0
        },
        "metallicFactor": 0.0
      }
    }
  ],
  "meshes": [
    {
      "name": "Object_0",
      "primitives": [
        {
          "attributes": {
            "NORMAL": 1,
            "POSITION": 0,
            "TEXCOORD_0": 2
          },
          "indices": 3,
          "material": 0,
          "mode": 4
        }
      ]
    },
    {
      "name": "Object_1",
      "primitives": [
        {
          "attributes": {
            "NORMAL": 5,
            "POSITION": 4,
            "TEXCOORD_0": 6
          },
          "indices": 7,
          "material": 0,
          "mode": 4
        }
      ]
    },
    {
      "name": "Object_2",
      "primitives": [
        {
          "attributes": {
            "NORMAL": 9,
            "POSITION": 8,
            "TEXCOORD_0": 10
          },
          "indices": 11,
          "material": 0,
          "mode": 4
        }
      ]
    },
    {
      "name": "Object_3",
      "primitives": [
        {
          "attributes": {
            "NORMAL": 13,
            "POSITION": 12,
            "TEXCOORD_0": 14
          },
          "indices": 15,
          "material": 0,
          "mode": 4
        }
      ]
    },
    {
      "name": "Object_4",
      "primitives": [
        {
          "attributes": {
            "NORMAL": 17,
            "POSITION": 16,
            "TEXCOORD_0": 18
          },
          "indices": 19,
          "material": 0,
          "mode": 4
        }
      ]
    }
  ],
  "nodes": [
    {
      "children": [
        1
      ],
      "matrix": [
        1.0,
        0.0,
        0.0,
        0.0,
        0.0,
        2.220446049250313e-16,
        -1.0,
        0.0,
        0.0,
        1.0,
        2.220446049250313e-16,
        0.0,
        0.0,
        0.0,
        0.0,
        1.0
      ],
      "name": "Sketchfab_model"
    },
    {
      "children": [
        2,
        3,
        4,
        5,
        6
      ],
      "matrix": [
        1.0,
        0.0,
        0.0,
        0.0,
        0.0,
        1.0,
        0.0,
        0.0,
        0.0,
        0.0,
        1.0,
        0.0,
        -5.932247161865234,
        -6.878551006317139,
        -12.539107322692871,
        1.0
      ],
      "name": "model.obj.cleaner.gles"
    },
    {
      "mesh": 0,
      "name": "Object_2"
    },
    {
      "mesh": 1,
      "name": "Object_3"
    },
    {
      "mesh": 2,
      "name": "Object_4"
    },
    {
      "mesh": 3,
      "name": "Object_5"
    },
    {
      "mesh": 4,
      "name": "Object_6"
    }
  ],
  "samplers": [
    {
      "magFilter": 9729,
      "minFilter": 9987,
      "wrapS": 10497,
      "wrapT": 10497
    }
  ],
  "scene": 0,
  "scenes": [
    {
      "name": "Sketchfab_Scene",
      "nodes": [
        0
      ]
    }
  ],
  "textures": [
    {
      "sampler": 0,
      "source": 0
    }
  ]
}
