{
  "accessors": [
    {
      "bufferView": 2,
      "componentType": 5126,
      "count": 65532,
      "max": [
        36.45369338989258,
        179.78871154785156,
        -0.8026950359344482
      ],
      "min": [
        -86.0501708984375,
        -113.0107421875,
        -119.34264373779297
      ],
      "type": "VEC3"
    },
    {
      "bufferView": 2,
      "byteOffset": 786384,
      "componentType": 5126,
      "count": 65532,
      "max": [
        0.999992311000824,
        1.0,
        0.9999920725822449
      ],
      "min": [
        -0.9999976754188538,
        -0.9999815225601196,
        -0.9999974966049194
      ],
      "type": "VEC3"
    },
    {
      "bufferView": 1,
      "componentType": 5126,
      "count": 65532,
      "max": [
        0.999755859375,
        0.8570764660835266
      ],
      "min": [
        0.0,
        0.0
      ],
      "type": "VEC2"
    },
    {
      "bufferView": 0,
      "componentType": 5125,
      "count": 234417,
      "type": "SCALAR"
    },
    {
      "bufferView": 2,
      "byteOffset": 1572768,
      "componentType": 5126,
      "count": 65532,
      "max": [
        36.44438552856445,
        179.78871154785156,
        -0.7930337190628052
      ],
      "min": [
        -83.9371337890625,
        -113.22188568115234,
        -119.80747985839844
      ],
      "type": "VEC3"
    },
    {
      "bufferView": 2,
      "byteOffset": 2359152,
      "componentType": 5126,
      "count": 65532,
      "max": [
        0.9999991655349731,
        1.0,
        0.9999662041664124
      ],
      "min": [
        -0.9999966025352478,
        -0.9998536705970764,
        -0.9999857544898987
      ],
      "type": "VEC3"
    },
    {
      "bufferView": 1,
      "byteOffset": 524256,
      "componentType": 5126,
      "count": 65532,
      "max": [
        0.9995822310447693,
        0.8540626168251038
      ],
      "min": [
        5.323972072801553e-05,
        4.961908416589722e-05
      ],
      "type": "VEC2"
    },
    {
      "bufferView": 0,
      "byteOffset": 937668,
      "componentType": 5125,
      "count": 273102,
      "type": "SCALAR"
    },
    {
      "bufferView": 2,
      "byteOffset": 3145536,
      "componentType": 5126,
      "count": 65532,
      "max": [
        36.45369338989258,
        179.73919677734375,
        -11.014213562011719
      ],
      "min": [
        -86.0501708984375,
        -113.38809967041016,
        -119.80747985839844
      ],
      "type": "VEC3"
    },
    {
      "bufferView": 2,
      "byteOffset": 3931920,
      "componentType": 5126,
      "count": 65532,
      "max": [
        0.9999810457229614,
        1.0,
        0.9999263882637024
      ],
      "min": [
        -0.9999990463256836,
        -0.9999924302101135,
        -0.9999974966049194
      ],
      "type": "VEC3"
    },
    {
      "bufferView": 1,
      "byteOffset": 1048512,
      "componentType": 5126,
      "count": 65532,
      "max": [
        0.9998336434364319,
        0.8546295166015625
      ],
      "min": [
        0.00047115894267335534,
        1.766525201674085e-05
      ],
      "type": "VEC2"
    },
    {
      "bufferView": 0,
      "byteOffset": 2030076,
      "componentType": 5125,
      "count": 280449,
      "type": "SCALAR"
    },
    {
      "bufferView": 2,
      "byteOffset": 4718304,
      "componentType": 5126,
      "count": 65532,
      "max": [
        36.27254867553711,
        179.73919677734375,
        -0.9068558812141418
      ],
      "min": [
        -84.9874496459961,
        -113.3708267211914,
        -119.6787338256836
      ],
      "type": "VEC3"
    },
    {
      "bufferView": 2,
      "byteOffset": 5504688,
      "componentType": 5126,
      "count": 65532,
      "max": [
        0.999992311000824,
        1.0,
        0.9999476671218872
      ],
      "min": [
        -0.9999737739562988,
        -0.999913215637207,
        -0.9999737739562988
      ],
      "type": "VEC3"
    },
    {
      "bufferView": 1,
      "byteOffset": 1572768,
      "componentType": 5126,
      "count": 65532,
      "max": [
        0.999390721321106,
        0.8552156686782837
      ],
      "min": [
        0.0005326190730556846,
        3.4059172321576625e-05
      ],
      "type": "VEC2"
    },
    {
      "bufferView": 0,
      "byteOffset": 3151872,
      "componentType": 5125,
      "count": 264558,
      "type": "SCALAR"
    },
    {
      "bufferView": 2,
      "byteOffset": 6291072,
      "componentType": 5126,
      "count": 7219,
      "max": [
        23.25267219543457,
        171.35842895507813,
        -27.11803436279297
      ],
      "min": [
        -84.18720245361328,
        -95.3857650756836,
        -117.75457000732422
      ],
      "type": "VEC3"
    },
    {
      "bufferView": 2,
      "byteOffset": 6377700,
      "componentType": 5126,
      "count": 7219,
      "max": [
        0.9999439120292664,
        0.9999393224716187,
        0.9999576210975647
      ],
      "min": [
        -0.9977162480354309,
        -0.9995317459106445,
        -0.9999033808708191
      ],
      "type": "VEC3"
    },
    {
      "bufferView": 1,
      "byteOffset": 2097024,
      "componentType": 5126,
      "count": 7219,
      "max": [
        0.9996168613433838,
        0.8556329011917114
      ],
      "min": [
        0.0025448091328144073,
        0.20010948181152344
      ],
      "type": "VEC2"
    },
    {
      "bufferView": 0,
      "byteOffset": 4210104,
      "componentType": 5125,
      "count": 28278,
      "type": "SCALAR"
    }
  ],
  "asset": {
    "extras": {
      "author": "Digitage (https://sketchfab.com/digitage)",
      "license": "CC-BY-4.0 (http://creativecommons.org/licenses/by/4.0/)",
      "source": "https://sketchfab.com/3d-models/athena-3dst8-6e77248670c64c478ac556ba64f250aa",
      "title": "Athena #3DST8"
    },
    "generator": "Sketchfab-15.22.0",
    "version": "2.0"
  },
  "bufferViews": [
    {
      "buffer": 0,
      "byteLength": 4323216,
      "name": "floatBufferViews",
      "target": 34963
    },
    {
      "buffer": 0,
      "byteLength": 2154776,
      "byteOffset": 4323216,
      "byteStride": 8,
      "name": "floatBufferViews",
      "target": 34962
    },
    {
      "buffer": 0,
      "byteLength": 6464328,
      "byteOffset": 6477992,
      "byteStride": 12,
      "name": "floatBufferViews",
      "target": 34962
    }
  ],
  "buffers": [
    {
      "byteLength": 12942320,
      "uri": "scene.bin"
    }
  ],
  "images": [
    {
      "uri": "textures/material_baseColor.png"
    }
  ],
  "materials": [
    {
      "doubleSided": true,
      "name": "material",
      "pbrMetallicRoughness": {
        "baseColorTexture": {
          "index": 0
        },
        "metallicFactor": 0.0,
        "roughnessFactor": 0.6
      }
    }
  ],
  "meshes": [
    {
      "name": "Object_0",
      "primitives": [
        {
          "attributes": {
            "NORMAL": 1,
            "POSITION": 0,
            "TEXCOORD_0": 2
          },
          "indices": 3,
          "material": 0,
          "mode": 4
        }
      ]
    },
    {
      "name": "Object_1",
      "primitives": [
        {
          "attributes": {
            "NORMAL": 5,
            "POSITION": 4,
            "TEXCOORD_0": 6
          },
          "indices": 7,
          "material": 0,
          "mode": 4
        }
      ]
    },
    {
      "name": "Object_2",
      "primitives": [
        {
          "attributes": {
            "NORMAL": 9,
            "POSITION": 8,
            "TEXCOORD_0": 10
          },
          "indices": 11,
          "material": 0,
          "mode": 4
        }
      ]
    },
    {
      "name": "Object_3",
      "primitives": [
        {
          "attributes": {
            "NORMAL": 13,
            "POSITION": 12,
            "TEXCOORD_0": 14
          },
          "indices": 15,
          "material": 0,
          "mode": 4
        }
      ]
    },
    {
      "name": "Object_4",
      "primitives": [
        {
          "attributes": {
            "NORMAL": 17,
            "POSITION": 16,
            "TEXCOORD_0": 18
          },
          "indices": 19,
          "material": 0,
          "mode": 4
        }
      ]
    }
  ],
  "nodes": [
    {
      "children": [
        1
      ],
      "matrix": [
        1.0,
        0.0,
        0.0,
        0.0,
        0.0,
        -1.0,
        -2.220446049250313e-16,
        0.0,
        0.0,
        2.220446049250313e-16,
        -1.0,
        0.0,
        0.0,
        0.0,
        0.0,
        1.0
      ],
      "name": "Sketchfab_model"
    },
    {
      "children": [
        2,
        3,
        4,
        5,
        6
      ],
      "name": "Athena.obj.cleaner.materialmerger.gles"
    },
    {
      "mesh": 0,
      "name": "Object_2"
    },
    {
      "mesh": 1,
      "name": "Object_3"
    },
    {
      "mesh": 2,
      "name": "Object_4"
    },
    {
      "mesh": 3,
      "name": "Object_5"
    },
    {
      "mesh": 4,
      "name": "Object_6"
    }
  ],
  "samplers": [
    {
      "magFilter": 9729,
      "minFilter": 9987,
      "wrapS": 10497,
      "wrapT": 10497
    }
  ],
  "scene": 0,
  "scenes": [
    {
      "name": "Sketchfab_Scene",
      "nodes": [
        0
      ]
    }
  ],
  "textures": [
    {
      "sampler": 0,
      "source": 0
    }
  ]
}
