{
  "accessors": [
    {
      "bufferView": 2,
      "componentType": 5126,
      "count": 65534,
      "max": [
        10.070810317993164,
        25.158775329589844,
        5.235077857971191
      ],
      "min": [
        0.0,
        9.360010147094727,
        0.00010900000052060932
      ],
      "type": "VEC3"
    },
    {
      "bufferView": 2,
      "byteOffset": 786408,
      "componentType": 5126,
      "count": 65534,
      "max": [
        0.9998971223831177,
        0.9999756217002869,
        0.9999794960021973
      ],
      "min": [
        -0.9999971389770508,
        -0.9999572038650513,
        -0.9999229907989502
      ],
      "type": "VEC3"
    },
    {
      "bufferView": 3,
      "componentType": 5126,
      "count": 65534,
      "max": [
        0.6313725709915161,
        0.6078431606292725,
        0.6078431606292725,
        1.0
      ],
      "min": [
        0.6313725709915161,
        0.6078431606292725,
        0.6078431606292725,
        1.0
      ],
      "type": "VEC4"
    },
    {
      "bufferView": 1,
      "componentType": 5126,
      "count": 65534,
      "max": [
        0.0,
        0.0
      ],
      "min": [
        0.0,
        0.0
      ],
      "type": "VEC2"
    },
    {
      "bufferView": 0,
      "componentType": 5125,
      "count": 65568,
      "type": "SCALAR"
    },
    {
      "bufferView": 2,
      "byteOffset": 1572816,
      "componentType": 5126,
      "count": 65533,
      "max": [
        10.312615394592285,
        25.3984375,
        5.796150207519531
      ],
      "min": [
        0.0,
        -0.0,
        -0.0
      ],
      "type": "VEC3"
    },
    {
      "bufferView": 2,
      "byteOffset": 2359212,
      "componentType": 5126,
      "count": 65533,
      "max": [
        0.9998770356178284,
        0.9998899698257446,
        0.999999463558197
      ],
      "min": [
        -0.9999789595603943,
        -0.9999272227287292,
        -0.9999653100967407
      ],
      "type": "VEC3"
    },
    {
      "bufferView": 3,
      "byteOffset": 1048544,
      "componentType": 5126,
      "count": 65533,
      "max": [
        0.6313725709915161,
        0.6078431606292725,
        0.6078431606292725,
        1.0
      ],
      "min": [
        0.6313725709915161,
        0.6078431606292725,
        0.6078431606292725,
        1.0
      ],
      "type": "VEC4"
    },
    {
      "bufferView": 1,
      "byteOffset": 524272,
      "componentType": 5126,
      "count": 65533,
      "max": [
        0.0,
        0.0
      ],
      "min": [
        0.0,
        0.0
      ],
      "type": "VEC2"
    },
    {
      "bufferView": 0,
      "byteOffset": 262272,
      "componentType": 5125,
      "count": 65550,
      "type": "SCALAR"
    },
    {
      "bufferView": 2,
      "byteOffset": 3145608,
      "componentType": 5126,
      "count": 65533,
      "max": [
        10.312615394592285,
        25.399324417114258,
        5.796150207519531
      ],
      "min": [
        0.0003129999968223274,
        -0.0,
        0.0010979999788105488
      ],
      "type": "VEC3"
    },
    {
      "bufferView": 2,
      "byteOffset": 3932004,
      "componentType": 5126,
      "count": 65533,
      "max": [
        0.9999913573265076,
        0.9996996521949768,
        0.9999979734420776
      ],
      "min": [
        -0.999916136264801,
        -0.9999881386756897,
        -0.9999772310256958
      ],
      "type": "VEC3"
    },
    {
      "bufferView": 3,
      "byteOffset": 2097072,
      "componentType": 5126,
      "count": 65533,
      "max": [
        0.6313725709915161,
        0.6078431606292725,
        0.6078431606292725,
        1.0
      ],
      "min": [
        0.6313725709915161,
        0.6078431606292725,
        0.6078431606292725,
        1.0
      ],
      "type": "VEC4"
    },
    {
      "bufferView": 1,
      "byteOffset": 1048536,
      "componentType": 5126,
      "count": 65533,
      "max": [
        0.0,
        0.0
      ],
      "min": [
        0.0,
        0.0
      ],
      "type": "VEC2"
    },
    {
      "bufferView": 0,
      "byteOffset": 524472,
      "componentType": 5125,
      "count": 65541,
      "type": "SCALAR"
    },
    {
      "bufferView": 2,
      "byteOffset": 4718400,
      "componentType": 5126,
      "count": 65533,
      "max": [
        10.312615394592285,
        25.400001525878906,
        5.796150207519531
      ],
      "min": [
        0.0019539999775588512,
        -0.0,
        0.0010979999788105488
      ],
      "type": "VEC3"
    },
    {
      "bufferView": 2,
      "byteOffset": 5504796,
      "componentType": 5126,
      "count": 65533,
      "max": [
        0.9998743534088135,
        0.9999500513076782,
        0.9998140931129456
      ],
      "min": [
        -0.9999210834503174,
        -0.9997478127479553,
        -0.9999938607215881
      ],
      "type": "VEC3"
    },
    {
      "bufferView": 3,
      "byteOffset": 3145600,
      "componentType": 5126,
      "count": 65533,
      "max": [
        0.6313725709915161,
        0.6078431606292725,
        0.6078431606292725,
        1.0
      ],
      "min": [
        0.6313725709915161,
        0.6078431606292725,
        0.6078431606292725,
        1.0
      ],
      "type": "VEC4"
    },
    {
      "bufferView": 1,
      "byteOffset": 1572800,
      "componentType": 5126,
      "count": 65533,
      "max": [
        0.0,
        0.0
      ],
      "min": [
        0.0,
        0.0
      ],
      "type": "VEC2"
    },
    {
      "bufferView": 0,
      "byteOffset": 786636,
      "componentType": 5125,
      "count": 65547,
      "type": "SCALAR"
    },
    {
      "bufferView": 2,
      "byteOffset": 6291192,
      "componentType": 5126,
      "count": 65534,
      "max": [
        10.312615394592285,
        25.400001525878906,
        5.796150207519531
      ],
      "min": [
        0.006752000190317631,
        0.03143300116062164,
        -0.0
      ],
      "type": "VEC3"
    },
    {
      "bufferView": 2,
      "byteOffset": 7077600,
      "componentType": 5126,
      "count": 65534,
      "max": [
        0.9998884201049805,
        0.9999211430549622,
        0.9999810457229614
      ],
      "min": [
        -0.9996452927589417,
        -0.9999254941940308,
        -0.9996500015258789
      ],
      "type": "VEC3"
    },
    {
      "bufferView": 3,
      "byteOffset": 4194128,
      "componentType": 5126,
      "count": 65534,
      "max": [
        0.6313725709915161,
        0.6078431606292725,
        0.6078431606292725,
        1.0
      ],
      "min": [
        0.6313725709915161,
        0.6078431606292725,
        0.6078431606292725,
        1.0
      ],
      "type": "VEC4"
    },
    {
      "bufferView": 1,
      "byteOffset": 2097064,
      "componentType": 5126,
      "count": 65534,
      "max": [
        0.0,
        0.0
      ],
      "min": [
        0.0,
        0.0
      ],
      "type": "VEC2"
    },
    {
      "bufferView": 0,
      "byteOffset": 1048824,
      "componentType": 5125,
      "count": 65553,
      "type": "SCALAR"
    },
    {
      "bufferView": 2,
      "byteOffset": 7864008,
      "componentType": 5126,
      "count": 65532,
      "max": [
        10.312615394592285,
        25.400001525878906,
        5.78622579574585
      ],
      "min": [
        0.0,
        0.018403999507427216,
        -0.0
      ],
      "type": "VEC3"
    },
    {
      "bufferView": 2,
      "byteOffset": 8650392,
      "componentType": 5126,
      "count": 65532,
      "max": [
        0.9996508955955505,
        0.9999289512634277,
        0.9999842643737793
      ],
      "min": [
        -0.9999765753746033,
        -0.9997488856315613,
        -0.9999995231628418
      ],
      "type": "VEC3"
    },
    {
      "bufferView": 3,
      "byteOffset": 5242672,
      "componentType": 5126,
      "count": 65532,
      "max": [
        0.6313725709915161,
        0.6078431606292725,
        0.6078431606292725,
        1.0
      ],
      "min": [
        0.6313725709915161,
        0.6078431606292725,
        0.6078431606292725,
        1.0
      ],
      "type": "VEC4"
    },
    {
      "bufferView": 1,
      "byteOffset": 2621336,
      "componentType": 5126,
      "count": 65532,
      "max": [
        0.0,
        0.0
      ],
      "min": [
        0.0,
        0.0
      ],
      "type": "VEC2"
    },
    {
      "bufferView": 0,
      "byteOffset": 1311036,
      "componentType": 5125,
      "count": 65550,
      "type": "SCALAR"
    },
    {
      "bufferView": 2,
      "byteOffset": 9436776,
      "componentType": 5126,
      "count": 56208,
      "max": [
        10.0899019241333,
        25.400001525878906,
        5.234500885009766
      ],
      "min": [
        0.011506999842822552,
        9.360010147094727,
        0.0007820000173524022
      ],
      "type": "VEC3"
    },
    {
      "bufferView": 2,
      "byteOffset": 10111272,
      "componentType": 5126,
      "count": 56208,
      "max": [
        0.9999966025352478,
        0.999809741973877,
        0.9998496770858765
      ],
      "min": [
        -0.9998189806938171,
        -0.9998621344566345,
        -0.9999374747276306
      ],
      "type": "VEC3"
    },
    {
      "bufferView": 3,
      "byteOffset": 6291184,
      "componentType": 5126,
      "count": 56208,
      "max": [
        0.6313725709915161,
        0.6078431606292725,
        0.6078431606292725,
        1.0
      ],
      "min": [
        0.6313725709915161,
        0.6078431606292725,
        0.6078431606292725,
        1.0
      ],
      "type": "VEC4"
    },
    {
      "bufferView": 1,
      "byteOffset": 3145592,
      "componentType": 5126,
      "count": 56208,
      "max": [
        0.0,
        0.0
      ],
      "min": [
        0.0,
        0.0
      ],
      "type": "VEC2"
    },
    {
      "bufferView": 0,
      "byteOffset": 1573236,
      "componentType": 5125,
      "count": 56217,
      "type": "SCALAR"
    }
  ],
  "asset": {
    "extras": {
      "author": "ALA (https://sketchfab.com/AlexisLarsonArt)",
      "license": "CC-BY-4.0 (http://creativecommons.org/licenses/by/4.0/)",
      "source": "https://sketchfab.com/3d-models/low-res-david-66c3406d65d74c97951a56f8fc2d002e",
      "title": "Low Res David"
    },
    "generator": "Sketchfab-12.66.0",
    "version": "2.0"
  },
  "bufferViews": [
    {
      "buffer": 0,
      "byteLength": 1798104,
      "name": "floatBufferViews",
      "target": 34963
    },
    {
      "buffer": 0,
      "byteLength": 3595256,
      "byteOffset": 1798104,
      "byteStride": 8,
      "name": "floatBufferViews",
      "target": 34962
    },
    {
      "buffer": 0,
      "byteLength": 10785768,
      "byteOffset": 5393360,
      "byteStride": 12,
      "name": "floatBufferViews",
      "target": 34962
    },
    {
      "buffer": 0,
      "byteLength": 7190512,
      "byteOffset": 16179128,
      "byteStride": 16,
      "name": "floatBufferViews",
      "target": 34962
    }
  ],
  "buffers": [
    {
      "byteLength": 23369640,
      "uri": "scene.bin"
    }
  ],
  "materials": [
    {
      "emissiveFactor": [
        0.13920454545454544,
        0.13920454545454544,
        0.13920454545454544
      ],
      "name": "Scene_-_Root",
      "pbrMetallicRoughness": {
        "metallicFactor": 0.0
      }
    }
  ],
  "meshes": [
    {
      "name": "Object_0",
      "primitives": [
        {
          "attributes": {
            "COLOR_0": 2,
            "NORMAL": 1,
            "POSITION": 0,
            "TEXCOORD_0": 3
          },
          "indices": 4,
          "material": 0,
          "mode": 4
        }
      ]
    },
    {
      "name": "Object_1",
      "primitives": [
        {
          "attributes": {
            "COLOR_0": 7,
            "NORMAL": 6,
            "POSITION": 5,
            "TEXCOORD_0": 8
          },
          "indices": 9,
          "material": 0,
          "mode": 4
        }
      ]
    },
    {
      "name": "Object_2",
      "primitives": [
        {
          "attributes": {
            "COLOR_0": 12,
            "NORMAL": 11,
            "POSITION": 10,
            "TEXCOORD_0": 13
          },
          "indices": 14,
          "material": 0,
          "mode": 4
        }
      ]
    },
    {
      "name": "Object_3",
      "primitives": [
        {
          "attributes": {
            "COLOR_0": 17,
            "NORMAL": 16,
            "POSITION": 15,
            "TEXCOORD_0": 18
          },
          "indices": 19,
          "material": 0,
          "mode": 4
        }
      ]
    },
    {
      "name": "Object_4",
      "primitives": [
        {
          "attributes": {
            "COLOR_0": 22,
            "NORMAL": 21,
            "POSITION": 20,
            "TEXCOORD_0": 23
          },
          "indices": 24,
          "material": 0,
          "mode": 4
        }
      ]
    },
    {
      "name": "Object_5",
      "primitives": [
        {
          "attributes": {
            "COLOR_0": 27,
            "NORMAL": 26,
            "POSITION": 25,
            "TEXCOORD_0": 28
          },
          "indices": 29,
          "material": 0,
          "mode": 4
        }
      ]
    },
    {
      "name": "Object_6",
      "primitives": [
        {
          "attributes": {
            "COLOR_0": 32,
            "NORMAL": 31,
            "POSITION": 30,
            "TEXCOORD_0": 33
          },
          "indices": 34,
          "material": 0,
          "mode": 4
        }
      ]
    }
  ],
  "nodes": [
    {
      "children": [
        1
      ],
      "matrix": [
        1.0,
        0.0,
        0.0,
        0.0,
        0.0,
        2.220446049250313e-16,
        -1.0,
        0.0,
        0.0,
        1.0,
        2.220446049250313e-16,
        0.0,
        0.0,
        0.0,
        0.0,
        1.0
      ],
      "name": "Sketchfab_model"
    },
    {
      "children": [
        2,
        3,
        4,
        5,
        6,
        7,
        8
      ],
      "matrix": [
        1.0,
        0.0,
        0.0,
        0.0,
        0.0,
        0.0,
        1.0,
        0.0,
        0.0,
        -1.0,
        0.0,
        0.0,
        0.0,
        0.0,
        0.0,
        1.0
      ],
      "name": "af9b3e591dc0429599be4e469f67ad8d.wrl.cleaner.materialmerger.gles"
    },
    {
      "mesh": 0,
      "name": "Object_2"
    },
    {
      "mesh": 1,
      "name": "Object_3"
    },
    {
      "mesh": 2,
      "name": "Object_4"
    },
    {
      "mesh": 3,
      "name": "Object_5"
    },
    {
      "mesh": 4,
      "name": "Object_6"
    },
    {
      "mesh": 5,
      "name": "Object_7"
    },
    {
      "mesh": 6,
      "name": "Object_8"
    }
  ],
  "scene": 0,
  "scenes": [
    {
      "name": "Sketchfab_Scene",
      "nodes": [
        0
      ]
    }
  ]
}
