{
  "accessors": [
    {
      "bufferView": 2,
      "componentType": 5126,
      "count": 36471,
      "max": [
        -0.19161799550056458,
        -0.029830999672412872,
        0.17293499410152435
      ],
      "min": [
        -0.5118669867515564,
        -0.06332000344991684,
        -0.2734740078449249
      ],
      "type": "VEC3"
    },
    {
      "bufferView": 2,
      "byteOffset": 437652,
      "componentType": 5126,
      "count": 36471,
      "max": [
        0.9999998807907104,
        0.9999977946281433,
        0.9999999403953552
      ],
      "min": [
        -0.9999997615814209,
        -0.999997079372406,
        -0.9999998807907104
      ],
      "type": "VEC3"
    },
    {
      "bufferView": 1,
      "componentType": 5126,
      "count": 36471,
      "max": [
        0.9805809855461121,
        0.9999989867210388
      ],
      "min": [
        0.0001500000071246177,
        1.1000000085914508e-05
      ],
      "type": "VEC2"
    },
    {
      "bufferView": 0,
      "componentType": 5125,
      "count": 191922,
      "type": "SCALAR"
    }
  ],
  "asset": {
    "extras": {
      "author": "Minneapolis Institute of Art (https://sketchfab.com/artsmia)",
      "license": "CC0-1.0 (http://creativecommons.org/publicdomain/zero/1.0/)",
      "source": "https://sketchfab.com/3d-models/ghirlandaios-portrait-of-a-young-woman-dc8e21c7fb4b4d64b822737d8cf94f53",
      "title": "Ghirlandaio's 'Portrait of a Young Woman'"
    },
    "generator": "Sketchfab-13.5.0",
    "version": "2.0"
  },
  "bufferViews": [
    {
      "buffer": 0,
      "byteLength": 767688,
      "name": "floatBufferViews",
      "target": 34963
    },
    {
      "buffer": 0,
      "byteLength": 291768,
      "byteOffset": 767688,
      "byteStride": 8,
      "name": "floatBufferViews",
      "target": 34962
    },
    {
      "buffer": 0,
      "byteLength": 875304,
      "byteOffset": 1059456,
      "byteStride": 12,
      "name": "floatBufferViews",
      "target": 34962
    }
  ],
  "buffers": [
    {
      "byteLength": 1934760,
      "uri": "scene.bin"
    }
  ],
  "images": [
    {
      "uri": "textures/Mia_001681_Ghirlandaio_64k_baseColor.jpeg"
    }
  ],
  "materials": [
    {
      "doubleSided": true,
      "name": "Mia_001681_Ghirlandaio_64k",
      "pbrMetallicRoughness": {
        "baseColorTexture": {
          "index": 0
        },
        "metallicFactor": 0.0
      }
    }
  ],
  "meshes": [
    {
      "name": "Object_0",
      "primitives": [
        {
          "attributes": {
            "NORMAL": 1,
            "POSITION": 0,
            "TEXCOORD_0": 2
          },
          "indices": 3,
          "material": 0,
          "mode": 4
        }
      ]
    }
  ],
  "nodes": [
    {
      "children": [
        1
      ],
      "matrix": [
        1.0,
        0.0,
        0.0,
        0.0,
        0.0,
        2.220446049250313e-16,
        -1.0,
        0.0,
        0.0,
        1.0,
        2.220446049250313e-16,
        0.0,
        0.0,
        0.0,
        0.0,
        1.0
      ],
      "name": "Sketchfab_model"
    },
    {
      "children": [
        2
      ],
      "name": "Mia_001681_Ghirlandaio_64k.obj.cleaner.materialmerger.gles"
    },
    {
      "mesh": 0,
      "name": "Object_2"
    }
  ],
  "samplers": [
    {
      "magFilter": 9729,
      "minFilter": 9987,
      "wrapS": 10497,
      "wrapT": 10497
    }
  ],
  "scene": 0,
  "scenes": [
    {
      "name": "Sketchfab_Scene",
      "nodes": [
        0
      ]
    }
  ],
  "textures": [
    {
      "sampler": 0,
      "source": 0
    }
  ]
}
