{
  "accessors": [
    {
      "bufferView": 2,
      "componentType": 5126,
      "count": 65532,
      "max": [
        5.213160037994385,
        9.344972610473633,
        4.708056926727295
      ],
      "min": [
        0.5140329599380493,
        0.0,
        0.7626750469207764
      ],
      "type": "VEC3"
    },
    {
      "bufferView": 2,
      "byteOffset": 786384,
      "componentType": 5126,
      "count": 65532,
      "max": [
        0.9999932646751404,
        0.9999985098838806,
        0.9999799728393555
      ],
      "min": [
        -0.999995768070221,
        -0.9999930262565613,
        -0.9999819993972778
      ],
      "type": "VEC3"
    },
    {
      "bufferView": 1,
      "componentType": 5126,
      "count": 65532,
      "max": [
        0.9631829857826233,
        0.9830179810523987
      ],
      "min": [
        4.999999873689376e-05,
        5.500000042957254e-05
      ],
      "type": "VEC2"
    },
    {
      "bufferView": 0,
      "componentType": 5125,
      "count": 365613,
      "type": "SCALAR"
    },
    {
      "bufferView": 2,
      "byteOffset": 1572768,
      "componentType": 5126,
      "count": 65532,
      "max": [
        4.830296993255615,
        16.148805618286133,
        4.728501319885254
      ],
      "min": [
        0.0035948753356933594,
        2.5745468139648438,
        0.3992431163787842
      ],
      "type": "VEC3"
    },
    {
      "bufferView": 2,
      "byteOffset": 2359152,
      "componentType": 5126,
      "count": 65532,
      "max": [
        0.9999258518218994,
        0.9994167685508728,
        0.9999916553497314
      ],
      "min": [
        -0.9999914765357971,
        -0.9999982118606567,
        -0.9999775290489197
      ],
      "type": "VEC3"
    },
    {
      "bufferView": 1,
      "byteOffset": 524256,
      "componentType": 5126,
      "count": 65532,
      "max": [
        0.9873830080032349,
        0.9872360229492188
      ],
      "min": [
        4.199999966658652e-05,
        0.03164700046181679
      ],
      "type": "VEC2"
    },
    {
      "bufferView": 0,
      "byteOffset": 1462452,
      "componentType": 5125,
      "count": 330576,
      "type": "SCALAR"
    },
    {
      "bufferView": 2,
      "byteOffset": 3145536,
      "componentType": 5126,
      "count": 65532,
      "max": [
        4.9456071853637695,
        16.147510528564453,
        4.557260036468506
      ],
      "min": [
        0.0,
        0.09012413024902344,
        0.0
      ],
      "type": "VEC3"
    },
    {
      "bufferView": 2,
      "byteOffset": 3931920,
      "componentType": 5126,
      "count": 65532,
      "max": [
        0.9999785423278809,
        0.9996188879013062,
        0.9999657869338989
      ],
      "min": [
        -0.9997859001159668,
        -0.9999982118606567,
        -0.9999792575836182
      ],
      "type": "VEC3"
    },
    {
      "bufferView": 1,
      "byteOffset": 1048512,
      "componentType": 5126,
      "count": 65532,
      "max": [
        0.9999679923057556,
        0.9877690076828003
      ],
      "min": [
        4.400000034365803e-05,
        0.0005890000029467046
      ],
      "type": "VEC2"
    },
    {
      "bufferView": 0,
      "byteOffset": 2784756,
      "componentType": 5125,
      "count": 321909,
      "type": "SCALAR"
    },
    {
      "bufferView": 2,
      "byteOffset": 4718304,
      "componentType": 5126,
      "count": 27603,
      "max": [
        4.137032985687256,
        16.137563705444336,
        4.7201151847839355
      ],
      "min": [
        0.0035948753356933594,
        2.607320785522461,
        0.7042829990386963
      ],
      "type": "VEC3"
    },
    {
      "bufferView": 2,
      "byteOffset": 5049540,
      "componentType": 5126,
      "count": 27603,
      "max": [
        0.9999262094497681,
        0.9994167685508728,
        0.9999911189079285
      ],
      "min": [
        -0.9999901056289673,
        -0.9999600052833557,
        -0.9999775290489197
      ],
      "type": "VEC3"
    },
    {
      "bufferView": 1,
      "byteOffset": 1572768,
      "componentType": 5126,
      "count": 27603,
      "max": [
        0.9817739725112915,
        0.9906259775161743
      ],
      "min": [
        0.0045460001565515995,
        0.003788999980315566
      ],
      "type": "VEC2"
    },
    {
      "bufferView": 0,
      "byteOffset": 4072392,
      "componentType": 5125,
      "count": 109056,
      "type": "SCALAR"
    }
  ],
  "asset": {
    "extras": {
      "author": "Geoffrey Marchal (https://sketchfab.com/geoffreymarchal)",
      "license": "CC-BY-NC-SA-4.0 (http://creativecommons.org/licenses/by-nc-sa/4.0/)",
      "source": "https://sketchfab.com/3d-models/venus-medici-708a4166439c45d799f4eaa40d0db70e",
      "title": "Venus Medici"
    },
    "generator": "Sketchfab-15.12.0",
    "version": "2.0"
  },
  "bufferViews": [
    {
      "buffer": 0,
      "byteLength": 4508616,
      "name": "floatBufferViews",
      "target": 34963
    },
    {
      "buffer": 0,
      "byteLength": 1793592,
      "byteOffset": 4508616,
      "byteStride": 8,
      "name": "floatBufferViews",
      "target": 34962
    },
    {
      "buffer": 0,
      "byteLength": 5380776,
      "byteOffset": 6302208,
      "byteStride": 12,
      "name": "floatBufferViews",
      "target": 34962
    }
  ],
  "buffers": [
    {
      "byteLength": 11682984,
      "uri": "scene.bin"
    }
  ],
  "extensionsUsed": [
    "KHR_materials_specular"
  ],
  "images": [
    {
      "uri": "textures/Material_0_baseColor.jpeg"
    },
    {
      "uri": "textures/Material_0_metallicRoughness.png"
    },
    {
      "uri": "textures/Material_0_specularf0.png"
    }
  ],
  "materials": [
    {
      "doubleSided": true,
      "extensions": {
        "KHR_materials_specular": {
          "specularColorFactor": [
            1.0,
            1.0,
            1.0
          ],
          "specularFactor": 1.0,
          "specularTexture": {
            "index": 2
          }
        }
      },
      "name": "Material_0",
      "pbrMetallicRoughness": {
        "baseColorTexture": {
          "index": 0
        },
        "metallicFactor": 0.0,
        "metallicRoughnessTexture": {
          "index": 1
        }
      }
    }
  ],
  "meshes": [
    {
      "name": "Object_0",
      "primitives": [
        {
          "attributes": {
            "NORMAL": 1,
            "POSITION": 0,
            "TEXCOORD_0": 2
          },
          "indices": 3,
          "material": 0,
          "mode": 4
        }
      ]
    },
    {
      "name": "Object_1",
      "primitives": [
        {
          "attributes": {
            "NORMAL": 5,
            "POSITION": 4,
            "TEXCOORD_0": 6
          },
          "indices": 7,
          "material": 0,
          "mode": 4
        }
      ]
    },
    {
      "name": "Object_2",
      "primitives": [
        {
          "attributes": {
            "NORMAL": 9,
            "POSITION": 8,
            "TEXCOORD_0": 10
          },
          "indices": 11,
          "material": 0,
          "mode": 4
        }
      ]
    },
    {
      "name": "Object_3",
      "primitives": [
        {
          "attributes": {
            "NORMAL": 13,
            "POSITION": 12,
            "TEXCOORD_0": 14
          },
          "indices": 15,
          "material": 0,
          "mode": 4
        }
      ]
    }
  ],
  "nodes": [
    {
      "children": [
        1
      ],
      "matrix": [
        -1.0,
        -2.7755575615628994e-17,
        3.608224830031759e-16,
        0.0,
        2.7755575615628914e-17,
        -1.0,
        -2.220446049250313e-16,
        0.0,
        3.608224830031759e-16,
        -2.220446049250313e-16,
        1.0,
        0.0,
        0.0,
        0.0,
        0.0,
        1.0
      ],
      "name": "Sketchfab_model"
    },
    {
      "children": [
        2,
        3,
        4,
        5
      ],
      "matrix": [
        1.0,
        0.0,
        0.0,
        0.0,
        0.0,
        1.0,
        0.0,
        0.0,
        0.0,
        0.0,
        1.0,
        0.0,
        -2.041996955871582,
        -20.262062072753906,
        -2.730621099472046,
        1.0
      ],
      "name": "venusmed.obj.cleaner.gles"
    },
    {
      "mesh": 0,
      "name": "Object_2"
    },
    {
      "mesh": 1,
      "name": "Object_3"
    },
    {
      "mesh": 2,
      "name": "Object_4"
    },
    {
      "mesh": 3,
      "name": "Object_5"
    }
  ],
  "samplers": [
    {
      "magFilter": 9729,
      "minFilter": 9987,
      "wrapS": 10497,
      "wrapT": 10497
    }
  ],
  "scene": 0,
  "scenes": [
    {
      "name": "Sketchfab_Scene",
      "nodes": [
        0
      ]
    }
  ],
  "textures": [
    {
      "sampler": 0,
      "source": 0
    },
    {
      "sampler": 0,
      "source": 1
    },
    {
      "sampler": 0,
      "source": 2
    }
  ]
}
