{
  "accessors": [
    {
      "bufferView": 2,
      "componentType": 5126,
      "count": 60070,
      "max": [
        0.03418999910354614,
        0.28784000873565674,
        2.322190046310425
      ],
      "min": [
        -0.8588399887084961,
        -0.5595600008964539,
        0.3768700063228607
      ],
      "type": "VEC3"
    },
    {
      "bufferView": 2,
      "byteOffset": 720840,
      "componentType": 5126,
      "count": 60070,
      "max": [
        0.9999988079071045,
        0.9999985098838806,
        0.999999463558197
      ],
      "min": [
        -0.9999974966049194,
        -0.9999956488609314,
        -0.9995805025100708
      ],
      "type": "VEC3"
    },
    {
      "bufferView": 1,
      "componentType": 5126,
      "count": 60070,
      "max": [
        0.9978029727935791,
        0.9916459918022156
      ],
      "min": [
        0.0021730000153183937,
        0.2810179889202118
      ],
      "type": "VEC2"
    },
    {
      "bufferView": 0,
      "componentType": 5125,
      "count": 331560,
      "type": "SCALAR"
    }
  ],
  "asset": {
    "extras": {
      "author": "mikesira (https://sketchfab.com/mikesira)",
      "license": "CC-BY-NC-SA-4.0 (http://creativecommons.org/licenses/by-nc-sa/4.0/)",
      "source": "https://sketchfab.com/3d-models/belvedere-torso-b73aa07872074d57b895eb8b6cf7d1a4",
      "title": "Belvedere Torso"
    },
    "generator": "Sketchfab-14.58.0",
    "version": "2.0"
  },
  "bufferViews": [
    {
      "buffer": 0,
      "byteLength": 1326240,
      "name": "floatBufferViews",
      "target": 34963
    },
    {
      "buffer": 0,
      "byteLength": 480560,
      "byteOffset": 1326240,
      "byteStride": 8,
      "name": "floatBufferViews",
      "target": 34962
    },
    {
      "buffer": 0,
      "byteLength": 1441680,
      "byteOffset": 1806800,
      "byteStride": 12,
      "name": "floatBufferViews",
      "target": 34962
    }
  ],
  "buffers": [
    {
      "byteLength": 3248480,
      "uri": "scene.bin"
    }
  ],
  "extensionsUsed": [
    "KHR_materials_unlit"
  ],
  "images": [
    {
      "uri": "textures/main_baseColor.jpeg"
    }
  ],
  "materials": [
    {
      "doubleSided": true,
      "extensions": {
        "KHR_materials_unlit": {}
      },
      "name": "main",
      "pbrMetallicRoughness": {
        "baseColorTexture": {
          "index": 0
        },
        "metallicFactor": 0.0
      }
    }
  ],
  "meshes": [
    {
      "name": "Object_0",
      "primitives": [
        {
          "attributes": {
            "NORMAL": 1,
            "POSITION": 0,
            "TEXCOORD_0": 2
          },
          "indices": 3,
          "material": 0,
          "mode": 4
        }
      ]
    }
  ],
  "nodes": [
    {
      "children": [
        1
      ],
      "matrix": [
        1.0,
        0.0,
        0.0,
        0.0,
        0.0,
        2.220446049250313e-16,
        -1.0,
        0.0,
        0.0,
        1.0,
        2.220446049250313e-16,
        0.0,
        0.0,
        0.0,
        0.0,
        1.0
      ],
      "name": "Sketchfab_model"
    },
    {
      "children": [
        2
      ],
      "name": "Scaniverse.obj.cleaner.materialmerger.gles"
    },
    {
      "mesh": 0,
      "name": "Object_2"
    }
  ],
  "samplers": [
    {
      "magFilter": 9729,
      "minFilter": 9987,
      "wrapS": 10497,
      "wrapT": 10497
    }
  ],
  "scene": 0,
  "scenes": [
    {
      "name": "Sketchfab_Scene",
      "nodes": [
        0
      ]
    }
  ],
  "textures": [
    {
      "sampler": 0,
      "source": 0
    }
  ]
}
