{
  "accessors": [
    {
      "bufferView": 2,
      "componentType": 5126,
      "count": 1790,
      "max": [
        409.36016845703125,
        2059.29150390625,
        405.16876220703125
      ],
      "min": [
        -343.9122009277344,
        -76.21284484863281,
        -375.5406799316406
      ],
      "type": "VEC3"
    },
    {
      "bufferView": 2,
      "byteOffset": 21480,
      "componentType": 5126,
      "count": 1790,
      "max": [
        0.9984341859817505,
        0.9999723434448242,
        0.9994592666625977
      ],
      "min": [
        -0.9989504814147949,
        -0.999998927116394,
        -0.9985929727554321
      ],
      "type": "VEC3"
    },
    {
      "bufferView": 3,
      "componentType": 5126,
      "count": 1790,
      "max": [
        0.9995047450065613,
        0.9997698664665222,
        0.9999997019767761,
        1.0
      ],
      "min": [
        -0.9969781041145325,
        -0.998522937297821,
        -0.9980192184448242,
        -1.0
      ],
      "type": "VEC4"
    },
    {
      "bufferView": 1,
      "componentType": 5126,
      "count": 1790,
      "max": [
        1.0,
        0.9935479164123535
      ],
      "min": [
        0.0003807470202445984,
        -0.000946044921875
      ],
      "type": "VEC2"
    },
    {
      "bufferView": 1,
      "byteOffset": 14320,
      "componentType": 5126,
      "count": 1790,
      "max": [
        1.0,
        0.9935479164123535
      ],
      "min": [
        0.0003807470202445984,
        -0.000946044921875
      ],
      "type": "VEC2"
    },
    {
      "bufferView": 1,
      "byteOffset": 28640,
      "componentType": 5126,
      "count": 1790,
      "max": [
        1.0,
        0.9935479164123535
      ],
      "min": [
        0.0003807470202445984,
        -0.000946044921875
      ],
      "type": "VEC2"
    },
    {
      "bufferView": 0,
      "componentType": 5125,
      "count": 9258,
      "type": "SCALAR"
    }
  ],
  "asset": {
    "extras": {
      "author": "Owlish Media (https://sketchfab.com/nataliekirk)",
      "license": "CC-BY-SA-4.0 (http://creativecommons.org/licenses/by-sa/4.0/)",
      "source": "https://sketchfab.com/3d-models/spear-bearer-low-poly-849dc96336b94ef099ec704a290db02a",
      "title": "Spear Bearer - Low Poly"
    },
    "generator": "Sketchfab-12.66.0",
    "version": "2.0"
  },
  "bufferViews": [
    {
      "buffer": 0,
      "byteLength": 37032,
      "name": "floatBufferViews",
      "target": 34963
    },
    {
      "buffer": 0,
      "byteLength": 42960,
      "byteOffset": 37032,
      "byteStride": 8,
      "name": "floatBufferViews",
      "target": 34962
    },
    {
      "buffer": 0,
      "byteLength": 42960,
      "byteOffset": 79992,
      "byteStride": 12,
      "name": "floatBufferViews",
      "target": 34962
    },
    {
      "buffer": 0,
      "byteLength": 28640,
      "byteOffset": 122952,
      "byteStride": 16,
      "name": "floatBufferViews",
      "target": 34962
    }
  ],
  "buffers": [
    {
      "byteLength": 151592,
      "uri": "scene.bin"
    }
  ],
  "images": [
    {
      "uri": "textures/Spear-bearer_baseColor.png"
    },
    {
      "uri": "textures/Spear-bearer_metallicRoughness.png"
    },
    {
      "uri": "textures/Spear-bearer_normal.png"
    }
  ],
  "materials": [
    {
      "doubleSided": true,
      "name": "Spear-bearer",
      "normalTexture": {
        "index": 2
      },
      "pbrMetallicRoughness": {
        "baseColorTexture": {
          "index": 0
        },
        "metallicFactor": 0.03830030487804878,
        "metallicRoughnessTexture": {
          "index": 1
        }
      }
    }
  ],
  "meshes": [
    {
      "name": "Spear_bearer_Spear-bearer_0",
      "primitives": [
        {
          "attributes": {
            "NORMAL": 1,
            "POSITION": 0,
            "TANGENT": 2,
            "TEXCOORD_0": 3,
            "TEXCOORD_1": 4,
            "TEXCOORD_2": 5
          },
          "indices": 6,
          "material": 0,
          "mode": 4
        }
      ]
    }
  ],
  "nodes": [
    {
      "children": [
        1
      ],
      "matrix": [
        1.0,
        0.0,
        0.0,
        0.0,
        0.0,
        2.220446049250313e-16,
        -1.0,
        0.0,
        0.0,
        1.0,
        2.220446049250313e-16,
        0.0,
        0.0,
        0.0,
        0.0,
        1.0
      ],
      "name": "Sketchfab_model"
    },
    {
      "children": [
        2
      ],
      "matrix": [
        1.0,
        0.0,
        0.0,
        0.0,
        0.0,
        0.0,
        1.0,
        0.0,
        0.0,
        -1.0,
        0.0,
        0.0,
        0.0,
        0.0,
        0.0,
        1.0
      ],
      "name": "spear-bearer.fbx"
    },
    {
      "children": [
        3
      ],
      "name": "RootNode"
    },
    {
      "children": [
        4
      ],
      "matrix": [
        1.0,
        0.0,
        0.0,
        0.0,
        0.0,
        1.0,
        0.0,
        0.0,
        0.0,
        0.0,
        1.0,
        0.0,
        -13.862689018249512,
        73.6341552734375,
        37.62607192993164,
        1.0
      ],
      "name": "Spear_bearer"
    },
    {
      "mesh": 0,
      "name": "Spear_bearer_Spear-bearer_0"
    }
  ],
  "samplers": [
    {
      "magFilter": 9729,
      "minFilter": 9987,
      "wrapS": 10497,
      "wrapT": 10497
    }
  ],
  "scene": 0,
  "scenes": [
    {
      "name": "Sketchfab_Scene",
      "nodes": [
        0
      ]
    }
  ],
  "textures": [
    {
      "sampler": 0,
      "source": 0
    },
    {
      "sampler": 0,
      "source": 1
    },
    {
      "sampler": 0,
      "source": 2
    }
  ]
}
